<svg width="111" height="111" viewBox="0 0 111 111" fill="none" xmlns="http://www.w3.org/2000/svg">
<path fill-rule="evenodd" clip-rule="evenodd" d="M55.5 0.5C25.125 0.5 0.5 25.125 0.5 55.5C0.5 85.875 25.125 110.5 55.5 110.5C85.875 110.5 110.5 85.875 110.5 55.5C110.5 25.125 85.875 0.5 55.5 0.5ZM79.34 46.2C79.779 45.6982 80.1132 45.1137 80.3229 44.4808C80.5327 43.848 80.6137 43.1796 80.5614 42.5149C80.509 41.8503 80.3242 41.2028 80.0179 40.6106C79.7116 40.0185 79.2899 39.4935 78.7777 39.0667C78.2656 38.6399 77.6732 38.3198 77.0355 38.1253C76.3978 37.9308 75.7276 37.8658 75.0644 37.9341C74.4012 38.0025 73.7584 38.2027 73.1737 38.5232C72.5891 38.8436 72.0744 39.2777 71.66 39.8L50.16 65.595L39.035 54.465C38.092 53.5542 36.829 53.0502 35.518 53.0616C34.207 53.073 32.9529 53.5989 32.0259 54.5259C31.0989 55.4529 30.573 56.707 30.5616 58.018C30.5502 59.329 31.0542 60.592 31.965 61.535L46.965 76.535C47.4563 77.026 48.0445 77.4092 48.6921 77.6603C49.3397 77.9114 50.0325 78.0248 50.7263 77.9932C51.4202 77.9617 52.0999 77.786 52.7221 77.4772C53.3442 77.1685 53.8953 76.7335 54.34 76.2L79.34 46.2Z" fill="#3AA634"/>
</svg>
