<svg width="32" height="32" viewBox="0 0 32 32" fill="none" xmlns="http://www.w3.org/2000/svg">
<path d="M26.5333 3.076C26.4862 2.95519 26.4037 2.85142 26.2966 2.77826C26.1896 2.7051 26.0629 2.66595 25.9333 2.66595C25.8036 2.66595 25.6769 2.7051 25.5699 2.77826C25.4628 2.85142 25.3804 2.95519 25.3333 3.076L24.7599 4.536C24.7281 4.61868 24.6794 4.69385 24.6169 4.75673C24.5545 4.81962 24.4797 4.86886 24.3973 4.90133L22.9426 5.47733C22.8221 5.52531 22.7188 5.60833 22.6461 5.71566C22.5733 5.82298 22.5344 5.94966 22.5344 6.07933C22.5344 6.209 22.5733 6.33568 22.6461 6.44301C22.7188 6.55033 22.8221 6.63335 22.9426 6.68133L24.3973 7.25733C24.4796 7.28965 24.5543 7.33869 24.6167 7.40134C24.6791 7.46399 24.7279 7.53889 24.7599 7.62133L25.3333 9.08C25.5493 9.62666 26.3199 9.62666 26.5333 9.08L27.1066 7.62C27.1388 7.53743 27.1877 7.46245 27.2504 7.39979C27.313 7.33713 27.388 7.28817 27.4706 7.256L28.9253 6.68C29.0457 6.63201 29.149 6.54899 29.2218 6.44167C29.2946 6.33435 29.3335 6.20767 29.3335 6.078C29.3335 5.94833 29.2946 5.82164 29.2218 5.71432C29.149 5.607 29.0457 5.52398 28.9253 5.476L27.4706 4.9C27.3879 4.86768 27.3128 4.81851 27.2502 4.75562C27.1875 4.69272 27.1386 4.61748 27.1066 4.53466L26.5333 3.076ZM21.3773 10.84C21.3302 10.7192 21.2477 10.6154 21.1406 10.5423C21.0336 10.4691 20.9069 10.43 20.7773 10.43C20.6476 10.43 20.5209 10.4691 20.4139 10.5423C20.3068 10.6154 20.2244 10.7192 20.1773 10.84L19.9679 11.372C19.9359 11.4544 19.8871 11.5293 19.8247 11.592C19.7623 11.6546 19.6876 11.7037 19.6053 11.736L19.0746 11.9467C18.9541 11.9946 18.8508 12.0777 18.7781 12.185C18.7053 12.2923 18.6664 12.419 18.6664 12.5487C18.6664 12.6783 18.7053 12.805 18.7781 12.9123C18.8508 13.0197 18.9541 13.1027 19.0746 13.1507L19.6053 13.36C19.7719 13.4267 19.9026 13.5573 19.9679 13.7253L20.1773 14.2573C20.3919 14.804 21.1626 14.804 21.3773 14.2573L21.5866 13.724C21.6186 13.6416 21.6674 13.5667 21.7298 13.504C21.7922 13.4414 21.8669 13.3923 21.9493 13.36L22.4799 13.1507C22.6004 13.1027 22.7037 13.0197 22.7765 12.9123C22.8492 12.805 22.8881 12.6783 22.8881 12.5487C22.8881 12.419 22.8492 12.2923 22.7765 12.185C22.7037 12.0777 22.6004 11.9946 22.4799 11.9467L21.9493 11.736C21.8669 11.7037 21.7922 11.6546 21.7298 11.592C21.6674 11.5293 21.6186 11.4544 21.5866 11.372L21.3773 10.84Z" stroke="#7D3261"/>
<path d="M28.3333 16C28.3333 19.271 27.0339 22.408 24.7209 24.721C22.408 27.0339 19.271 28.3333 16 28.3333V30.3333C23.916 30.3333 30.3333 23.916 30.3333 16H28.3333ZM16 28.3333C12.729 28.3333 9.59192 27.0339 7.27898 24.721C4.96603 22.408 3.66663 19.271 3.66663 16H1.66663C1.66663 23.916 8.08396 30.3333 16 30.3333V28.3333ZM3.66663 16C3.66663 12.729 4.96603 9.59196 7.27898 7.27901C9.59192 4.96607 12.729 3.66666 16 3.66666V1.66666C8.08396 1.66666 1.66663 8.084 1.66663 16H3.66663ZM20.6666 19C18.6333 19 16.6833 18.1923 15.2455 16.7545C13.8077 15.3167 13 13.3667 13 11.3333H11C11 13.8971 12.0184 16.3558 13.8313 18.1687C15.6441 19.9815 18.1029 21 20.6666 21V19ZM27.2333 15.292C26.551 16.4235 25.5879 17.3595 24.4374 18.0092C23.2868 18.6589 21.9879 19.0002 20.6666 19V21C22.3325 21.0005 23.9702 20.5705 25.4209 19.7517C26.8716 18.9329 28.0861 17.7531 28.9466 16.3267L27.2333 15.292ZM13 11.3333C12.9998 10.012 13.3411 8.71311 13.9907 7.56257C14.6404 6.41202 15.5764 5.44891 16.708 4.76666L15.6733 3.05466C14.2471 3.91504 13.0674 5.12934 12.2486 6.57981C11.4298 8.03028 10.9997 9.66771 11 11.3333H13ZM16 3.66666C15.933 3.66538 15.8669 3.65081 15.8055 3.6238C15.7442 3.59679 15.6888 3.55789 15.6426 3.50933C15.5864 3.45287 15.5483 3.3809 15.5333 3.30266C15.528 3.26133 15.5306 3.14133 15.6733 3.05466L16.708 4.76666C17.3786 4.36133 17.5946 3.61866 17.516 3.03466C17.4333 2.428 16.956 1.66666 16 1.66666V3.66666ZM28.9466 16.3267C28.8586 16.4693 28.7386 16.472 28.6973 16.4667C28.6191 16.4516 28.5471 16.4135 28.4906 16.3573C28.4421 16.3111 28.4032 16.2558 28.3762 16.1944C28.3491 16.1331 28.3346 16.067 28.3333 16H30.3333C30.3333 15.044 29.572 14.5667 28.9653 14.484C28.3813 14.4053 27.6386 14.6213 27.2333 15.292L28.9466 16.3267Z" fill="#7D3261"/>
</svg>
