<svg width="32" height="32" viewBox="0 0 32 32" fill="none" xmlns="http://www.w3.org/2000/svg">
<path d="M24 16C24 18.1217 23.1571 20.1566 21.6569 21.6569C20.1566 23.1571 18.1217 24 16 24C13.8783 24 11.8434 23.1571 10.3431 21.6569C8.84285 20.1566 8 18.1217 8 16C8 13.8783 8.84285 11.8434 10.3431 10.3431C11.8434 8.84285 13.8783 8 16 8C18.1217 8 20.1566 8.84285 21.6569 10.3431C23.1571 11.8434 24 13.8783 24 16Z" fill="#D881B7"/>
<path fill-rule="evenodd" clip-rule="evenodd" d="M15.9998 1.6665C16.2651 1.6665 16.5194 1.77186 16.7069 1.9594C16.8945 2.14693 16.9998 2.40129 16.9998 2.6665V3.99984C16.9998 4.26505 16.8945 4.51941 16.7069 4.70694C16.5194 4.89448 16.2651 4.99984 15.9998 4.99984C15.7346 4.99984 15.4803 4.89448 15.2927 4.70694C15.1052 4.51941 14.9998 4.26505 14.9998 3.99984V2.6665C14.9998 2.40129 15.1052 2.14693 15.2927 1.9594C15.4803 1.77186 15.7346 1.6665 15.9998 1.6665ZM5.86517 5.86517C6.05267 5.6779 6.30684 5.57272 6.57184 5.57272C6.83684 5.57272 7.091 5.6779 7.2785 5.86517L7.8025 6.38784C7.98475 6.57635 8.08567 6.82891 8.08351 7.09111C8.08136 7.35331 7.97631 7.60417 7.79099 7.78967C7.60567 7.97516 7.3549 8.08045 7.09271 8.08285C6.83051 8.08525 6.57786 7.98458 6.38917 7.8025L5.86517 7.2785C5.6779 7.091 5.57272 6.83684 5.57272 6.57184C5.57272 6.30684 5.6779 6.05267 5.86517 5.86517ZM26.1345 5.86517C26.3218 6.05267 26.427 6.30684 26.427 6.57184C26.427 6.83684 26.3218 7.091 26.1345 7.2785L25.6105 7.8025C25.4209 7.97914 25.1702 8.07531 24.9111 8.07074C24.6521 8.06617 24.4049 7.96122 24.2217 7.778C24.0385 7.59478 23.9335 7.3476 23.9289 7.08853C23.9244 6.82947 24.0205 6.57874 24.1972 6.38917L24.7212 5.86517C24.9087 5.6779 25.1628 5.57272 25.4278 5.57272C25.6928 5.57272 25.947 5.6779 26.1345 5.86517ZM1.6665 15.9998C1.6665 15.7346 1.77186 15.4803 1.9594 15.2927C2.14693 15.1052 2.40129 14.9998 2.6665 14.9998H3.99984C4.26505 14.9998 4.51941 15.1052 4.70694 15.2927C4.89448 15.4803 4.99984 15.7346 4.99984 15.9998C4.99984 16.2651 4.89448 16.5194 4.70694 16.7069C4.51941 16.8945 4.26505 16.9998 3.99984 16.9998H2.6665C2.40129 16.9998 2.14693 16.8945 1.9594 16.7069C1.77186 16.5194 1.6665 16.2651 1.6665 15.9998ZM26.9998 15.9998C26.9998 15.7346 27.1052 15.4803 27.2927 15.2927C27.4803 15.1052 27.7346 14.9998 27.9998 14.9998H29.3332C29.5984 14.9998 29.8527 15.1052 30.0403 15.2927C30.2278 15.4803 30.3332 15.7346 30.3332 15.9998C30.3332 16.2651 30.2278 16.5194 30.0403 16.7069C29.8527 16.8945 29.5984 16.9998 29.3332 16.9998H27.9998C27.7346 16.9998 27.4803 16.8945 27.2927 16.7069C27.1052 16.5194 26.9998 16.2651 26.9998 15.9998ZM24.1972 24.1972C24.3847 24.0099 24.6388 23.9047 24.9038 23.9047C25.1688 23.9047 25.423 24.0099 25.6105 24.1972L26.1345 24.7212C26.2328 24.8127 26.3116 24.9231 26.3662 25.0458C26.4209 25.1685 26.4503 25.3009 26.4526 25.4351C26.455 25.5694 26.4303 25.7028 26.38 25.8273C26.3297 25.9518 26.2548 26.0649 26.1599 26.1599C26.0649 26.2548 25.9518 26.3297 25.8273 26.38C25.7028 26.4303 25.5694 26.455 25.4351 26.4526C25.3009 26.4503 25.1685 26.4209 25.0458 26.3662C24.9231 26.3116 24.8127 26.2328 24.7212 26.1345L24.1972 25.6105C24.0099 25.423 23.9047 25.1688 23.9047 24.9038C23.9047 24.6388 24.0099 24.3847 24.1972 24.1972ZM7.8025 24.1972C7.98977 24.3847 8.09496 24.6388 8.09496 24.9038C8.09496 25.1688 7.98977 25.423 7.8025 25.6105L7.2785 26.1345C7.18695 26.2328 7.07655 26.3116 6.95389 26.3662C6.83122 26.4209 6.6988 26.4503 6.56453 26.4526C6.43026 26.455 6.29689 26.4303 6.17237 26.38C6.04786 26.3297 5.93474 26.2548 5.83979 26.1599C5.74483 26.0649 5.66997 25.9518 5.61967 25.8273C5.56938 25.7028 5.54468 25.5694 5.54705 25.4351C5.54942 25.3009 5.57881 25.1685 5.63346 25.0458C5.68812 24.9231 5.76692 24.8127 5.86517 24.7212L6.38784 24.1972C6.4807 24.1042 6.59097 24.0305 6.71234 23.9802C6.83371 23.9299 6.96379 23.9041 7.09517 23.9041C7.22655 23.9041 7.35663 23.9299 7.478 23.9802C7.59937 24.0305 7.70964 24.1042 7.8025 24.1972ZM15.9998 26.9998C16.2651 26.9998 16.5194 27.1052 16.7069 27.2927C16.8945 27.4803 16.9998 27.7346 16.9998 27.9998V29.3332C16.9998 29.5984 16.8945 29.8527 16.7069 30.0403C16.5194 30.2278 16.2651 30.3332 15.9998 30.3332C15.7346 30.3332 15.4803 30.2278 15.2927 30.0403C15.1052 29.8527 14.9998 29.5984 14.9998 29.3332V27.9998C14.9998 27.7346 15.1052 27.4803 15.2927 27.2927C15.4803 27.1052 15.7346 26.9998 15.9998 26.9998Z" fill="#D881B7"/>
</svg>
