<svg width="80" height="80" viewBox="0 0 80 80" fill="none" xmlns="http://www.w3.org/2000/svg">
<g clip-path="url(#clip0_28_1151)">
<path d="M20.7063 25.0719C20.3616 24.5083 20.1377 23.8792 20.049 23.2245C19.9602 22.5698 20.0085 21.9038 20.1906 21.2687C20.3144 20.7415 20.5256 20.2387 20.8156 19.7812L27.5 10.2188V2.5C27.4993 2.15728 27.569 1.81807 27.7049 1.50343C27.8407 1.18879 28.0398 0.905446 28.2898 0.670997C28.5398 0.436549 28.8353 0.256002 29.158 0.140572C29.4807 0.0251418 29.8237 -0.0227062 30.1656 -2.08616e-07C30.8096 0.055295 31.4086 0.352766 31.8419 0.832399C32.2751 1.31203 32.5103 1.93813 32.5 2.58437V10.1312L34.1406 12.1875C34.8548 13.0832 35.7654 13.8027 36.802 14.2904C37.8386 14.7781 38.9734 15.0208 40.1188 15C41.2499 14.968 42.3601 14.6874 43.3706 14.1781C44.3811 13.6688 45.2671 12.9433 45.9656 12.0531L47.5 10.1312V2.5C47.4993 2.15728 47.569 1.81807 47.7049 1.50343C47.8407 1.18879 48.0398 0.905446 48.2898 0.670997C48.5398 0.436549 48.8353 0.256002 49.158 0.140572C49.4807 0.0251418 49.8237 -0.0227062 50.1656 -2.08616e-07C50.8096 0.055295 51.4086 0.352766 51.8419 0.832399C52.2751 1.31203 52.5103 1.93813 52.5 2.58437V10.2188L59.1938 19.7812C59.4838 20.2387 59.6951 20.7415 59.8188 21.2687C60.001 21.9038 60.0492 22.5698 59.9604 23.2245C59.8717 23.8792 59.6479 24.5083 59.3031 25.0719C59.2907 25.09 59.2792 25.1088 59.2688 25.1281L54.9375 31.9219C54.8238 32.1003 54.6667 32.2469 54.4809 32.348C54.295 32.4491 54.0866 32.5014 53.875 32.5H26.125C25.9151 32.4998 25.7085 32.4468 25.5245 32.3457C25.3404 32.2447 25.1848 32.0989 25.0719 31.9219L20.7407 25.1281C20.7302 25.1088 20.7187 25.09 20.7063 25.0719ZM67.1125 65.5594C67.0995 65.5228 67.0839 65.4873 67.0656 65.4531L54.2781 38.2188C54.177 38.0034 54.0166 37.8214 53.8157 37.6941C53.6147 37.5668 53.3816 37.4995 53.1438 37.5H26.8563C26.6184 37.4995 26.3853 37.5668 26.1844 37.6941C25.9834 37.8214 25.823 38.0034 25.7219 38.2188L12.9344 65.4531C12.9162 65.4873 12.9005 65.5228 12.8875 65.5594C12.6151 66.2167 12.4843 66.9241 12.5037 67.6354C12.5231 68.3467 12.6922 69.046 13 69.6875C13.4106 70.5313 14.0503 71.2426 14.8461 71.74C15.6419 72.2374 16.5616 72.5007 17.5 72.5H62.5C63.4379 72.5001 64.3569 72.2365 65.1521 71.7392C65.9473 71.2418 66.5866 70.5309 66.9969 69.6875C67.3052 69.0462 67.4749 68.3471 67.4948 67.6358C67.5147 66.9245 67.3844 66.2169 67.1125 65.5594Z" fill="#FAFAFA"/>
</g>
<defs>
<clipPath id="clip0_28_1151">
<rect width="80" height="80" fill="white"/>
</clipPath>
</defs>
</svg>
