<svg width="80" height="80" viewBox="0 0 80 80" fill="none" xmlns="http://www.w3.org/2000/svg">
<path d="M68.7219 67.0344L61.8469 12.0344C61.7334 11.1274 61.2925 10.2931 60.6072 9.68825C59.9218 9.08344 59.0391 8.74978 58.125 8.75H21.875C20.961 8.74978 20.0783 9.08344 19.3929 9.68825C18.7075 10.2931 18.2667 11.1274 18.1532 12.0344L11.2782 67.0344C11.2121 67.5621 11.2591 68.0978 11.416 68.606C11.5728 69.1142 11.836 69.5832 12.188 69.9819C12.54 70.3806 12.9728 70.6999 13.4576 70.9185C13.9424 71.1371 14.4682 71.2501 15 71.25H27.7157C28.5506 71.2504 29.3619 70.9721 30.0208 70.4593C30.6797 69.9464 31.1486 69.2283 31.3532 68.4188L40 35L48.6469 68.4188C48.8515 69.2283 49.3204 69.9464 49.9793 70.4593C50.6382 70.9721 51.4494 71.2504 52.2844 71.25H65C65.5319 71.2501 66.0577 71.1371 66.5425 70.9185C67.0273 70.6999 67.4601 70.3806 67.8121 69.9819C68.1641 69.5832 68.4273 69.1142 68.5841 68.606C68.741 68.0978 68.788 67.5621 68.7219 67.0344ZM61.725 31.2188C59.0986 31.037 56.6191 29.9398 54.7182 28.1183C52.8173 26.2968 51.6155 23.8663 51.3219 21.25H60.4782L61.725 31.2188ZM21.875 11.25H58.125C58.4312 11.2476 58.7276 11.3576 58.958 11.5592C59.1884 11.7608 59.3368 12.04 59.375 12.3438L60.1657 18.75H19.8344L20.625 12.3438C20.6633 12.04 20.8117 11.7608 21.0421 11.5592C21.2725 11.3576 21.5689 11.2476 21.875 11.25ZM19.5219 21.25H28.6782C28.3846 23.8663 27.1828 26.2968 25.2819 28.1183C23.381 29.9398 20.9015 31.037 18.275 31.2188L19.5219 21.25ZM28.9282 67.8125C28.8588 68.0812 28.702 68.3191 28.4825 68.4889C28.2629 68.6586 27.9932 68.7505 27.7157 68.75H15C14.8219 68.7514 14.6455 68.7147 14.4826 68.6423C14.3198 68.57 14.1743 68.4637 14.056 68.3305C13.9376 68.1973 13.8491 68.0404 13.7963 67.8702C13.7435 67.7 13.7278 67.5205 13.75 67.3438L17.9594 33.75C21.3084 33.6339 24.5 32.3002 26.9359 29.999C29.3718 27.6977 30.8846 24.587 31.1907 21.25H38.75V29.8406L28.9282 67.8125ZM65.9375 68.3281C65.8201 68.4609 65.6758 68.5672 65.5142 68.6399C65.3525 68.7126 65.1773 68.7502 65 68.75H52.2844C52.0039 68.7501 51.7314 68.6559 51.511 68.4825C51.2905 68.309 51.1347 68.0664 51.0688 67.7938L41.25 29.8406V21.25H48.8094C49.1155 24.587 50.6283 27.6977 53.0642 29.999C55.5 32.3002 58.6917 33.6339 62.0407 33.75L66.25 67.3438C66.2711 67.5206 66.2541 67.7 66.2002 67.8697C66.1463 68.0395 66.0568 68.1958 65.9375 68.3281Z" fill="#7A7A7A"/>
</svg>
