<svg width="80" height="80" viewBox="0 0 80 80" fill="none" xmlns="http://www.w3.org/2000/svg">
<path d="M58.5563 57.2875C43.7075 48.6238 41.5188 45.2837 32.5188 26.5525L32.185 25.86C22.6538 6.02875 19.0975 2.5 12.2425 2.5C4.74501 2.5 0.0137565 18.0362 3.87876 28.4525C7.58626 38.44 8.28501 44.9375 8.28501 70.7925L11.345 71.4587L16.27 70.5488C16.27 70.5488 15.2025 55.47 17.9175 48.3475C19.6675 51.2538 22.0025 55.3788 25.035 61.195C32.6713 75.83 40.0725 77.5 47.4288 77.5H74.62C76.0588 77.1963 77.5 76.2213 77.5 72.3863C77.5 68.9725 71.095 64.6025 58.5563 57.2875ZM12.33 4.80875C16.7738 4.83 20.23 6.42625 30.0425 26.8412L30.3763 27.5325C38.6425 44.74 41.1525 49.9625 53.6 57.1912C50.9288 57.4 45.9838 59.29 45.9838 59.29C35.5288 51.965 27.7988 37.35 23.4538 28.0125C22.0738 25.0475 20.88 22.4862 19.8475 20.765C17.3763 16.6487 14.025 15.2037 10.6863 14.7875C9.50501 11.5662 9.20501 7.64875 10.265 5.915C10.4938 5.54 10.9563 5.02125 12.33 4.80875ZM13.8388 58.3512C13.6063 62.4338 13.7025 66.36 13.8 68.655L11.26 69.075L11.3025 52.2325C11.5725 46.8187 12.2013 42.27 13.5438 41.8687C13.5438 41.8687 14.3925 42.7438 16.435 45.9463C15.0138 48.555 14.1675 52.6287 13.8388 58.3512ZM14.7988 25.7113C13.43 22.5613 12.2288 19.7612 11.2525 17.2775C13.9363 17.6087 16.1438 19.1613 17.8063 21.93C18.7763 23.5463 19.945 26.0588 21.2988 28.965C25.7063 38.4375 32.3263 52.62 43.1125 60.3563C31.95 63.1875 27.415 54.7088 14.7988 25.7113Z" fill="#7A7A7A"/>
</svg>
