<svg width="20" height="20" viewBox="0 0 20 20" fill="none" xmlns="http://www.w3.org/2000/svg">
<path d="M11.7289 1.51014L13.4889 5.03014C13.7289 5.52014 14.3689 5.99014 14.9089 6.08014L18.0989 6.61014C20.1389 6.95014 20.6189 8.43014 19.1489 9.89014L16.6689 12.3701C16.2489 12.7901 16.0189 13.6001 16.1489 14.1801L16.8589 17.2501C17.4189 19.6801 16.1289 20.6201 13.9789 19.3501L10.9889 17.5801C10.4489 17.2601 9.55893 17.2601 9.00893 17.5801L6.01893 19.3501C3.87893 20.6201 2.57893 19.6701 3.13893 17.2501L3.84893 14.1801C3.97893 13.6001 3.74893 12.7901 3.32893 12.3701L0.848932 9.89014C-0.611068 8.43014 -0.141067 6.95014 1.89893 6.61014L5.08893 6.08014C5.61893 5.99014 6.25893 5.52014 6.49893 5.03014L8.25893 1.51014C9.21893 -0.399863 10.7789 -0.399863 11.7289 1.51014Z" fill="#FFAA2B"/>
</svg>
