<svg width="80" height="80" viewBox="0 0 80 80" fill="none" xmlns="http://www.w3.org/2000/svg">
<path d="M76.775 20.2281L60.5969 11.4031C60.4138 11.3031 60.2086 11.2504 60 11.25H50C49.6685 11.25 49.3506 11.3817 49.1161 11.6161C48.8817 11.8505 48.75 12.1685 48.75 12.5C48.75 14.8206 47.8282 17.0462 46.1872 18.6872C44.5463 20.3281 42.3207 21.25 40 21.25C37.6794 21.25 35.4538 20.3281 33.8128 18.6872C32.1719 17.0462 31.25 14.8206 31.25 12.5C31.25 12.1685 31.1183 11.8505 30.8839 11.6161C30.6495 11.3817 30.3316 11.25 30 11.25H20C19.7922 11.2519 19.5881 11.3056 19.4063 11.4062L3.22503 20.2281C2.36001 20.6801 1.70966 21.4568 1.41672 22.3878C1.12377 23.3187 1.21218 24.3279 1.66253 25.1938L7.68753 36.6969C8.01846 37.3203 8.51377 37.8412 9.11975 38.2032C9.72572 38.5651 10.4192 38.7542 11.125 38.75H18.75V65C18.75 65.9946 19.1451 66.9484 19.8484 67.6516C20.5516 68.3549 21.5055 68.75 22.5 68.75H57.5C58.4946 68.75 59.4484 68.3549 60.1517 67.6516C60.8549 66.9484 61.25 65.9946 61.25 65V38.75H68.8532C69.559 38.7542 70.2525 38.5651 70.8584 38.2032C71.4644 37.8412 71.9597 37.3203 72.2907 36.6969L78.3157 25.1938C78.7677 24.3306 78.8593 23.3235 78.5706 22.3928C78.2819 21.4622 77.6362 20.6839 76.775 20.2281ZM11.1469 36.25C10.8934 36.2562 10.6431 36.1931 10.4229 36.0675C10.2026 35.942 10.0208 35.7587 9.8969 35.5375L3.88753 24.0344C3.81493 23.894 3.77116 23.7405 3.75879 23.583C3.74642 23.4255 3.7657 23.267 3.8155 23.1171C3.86529 22.9671 3.9446 22.8286 4.04875 22.7097C4.15289 22.5909 4.27977 22.4941 4.4219 22.425L18.75 14.6063V36.25H11.1469ZM58.75 65C58.75 65.3315 58.6183 65.6495 58.3839 65.8839C58.1495 66.1183 57.8316 66.25 57.5 66.25H22.5C22.1685 66.25 21.8506 66.1183 21.6161 65.8839C21.3817 65.6495 21.25 65.3315 21.25 65V13.75H28.8188C29.1244 16.5017 30.434 19.0442 32.497 20.8907C34.5599 22.7372 37.2314 23.7582 40 23.7582C42.7687 23.7582 45.4401 22.7372 47.5031 20.8907C49.5661 19.0442 50.8757 16.5017 51.1813 13.75H58.75V65ZM76.1125 24.0344L70.0907 35.5375C69.9668 35.7587 69.785 35.942 69.5647 36.0675C69.3444 36.1931 69.0941 36.2562 68.8407 36.25H61.25V14.6063L75.5782 22.4187C75.7211 22.4878 75.8487 22.5848 75.9534 22.7042C76.0581 22.8235 76.1377 22.9626 76.1876 23.1134C76.2374 23.2641 76.2565 23.4233 76.2436 23.5815C76.2307 23.7397 76.1861 23.8937 76.1125 24.0344Z" fill="#7A7A7A"/>
</svg>
